<svg xmlns="http://www.w3.org/2000/svg"><symbol id="profile-clear" viewBox="0 0 143 171.5"><style>.st0{fill:none;stroke:#000;stroke-width:10;stroke-linecap:round;stroke-linejoin:round;stroke-miterlimit:10}</style><circle cx="71" cy="42.4" r="34.5" class="st0"/><path d="M133.4 160.7c0-34.5-27.9-62.4-62.4-62.4S8.6 126.2 8.6 160.7h124.8z" class="st0"/></symbol><symbol id="search" viewBox="0 0 75.3 68.01"><style>.st0{fill:#fff;stroke:#000;stroke-width:2;stroke-miterlimit:10}</style><circle cx="29.09" cy="25.09" r="25.09" class="st0"/><path d="M56.42 37.03h7.57V70.8h-7.57z" transform="rotate(-48.089 60.206 53.91)"/></symbol><symbol id="star-01" viewBox="0 0 500 500"><style>.st0{fill:#f0150e}.st1{fill:none;stroke:#f0150e;stroke-width:7;stroke-miterlimit:10}</style><path d="M250 22.41l77.25 156.54L500 204.05 375 325.89l29.51 172.05L250 416.71 95.49 497.94 125 325.89 0 204.05l172.75-25.1z" class="st0"/></symbol><symbol id="star-02" viewBox="0 0 500 500"><style>.st0{fill:#f0150e}.st1{fill:none;stroke:#f0150e;stroke-width:7;stroke-miterlimit:10}</style><path d="M250 22.41l77.25 156.54L500 204.05 375 325.89l29.51 172.05L250 416.71 95.49 497.94 125 325.89 0 204.05l172.75-25.1z" class="st1"/></symbol><symbol id="twitter" viewBox="0 0 512 512"><style>.st0{fill-rule:evenodd;clip-rule:evenodd;fill:#fff}</style><path d="M512 99.85c-18.61 8.06-38.87 13.61-60.25 16.38 21.92-13.04 38.58-33.03 46.37-57.46-20.27 11.93-43.04 20.54-66.91 25.26-18.91-20.25-46.37-32.75-76.92-32.75-57.75 0-104.97 46.36-104.97 103.26 0 8.33 1.41 16.11 3.07 23.6-87.46-4.17-164.94-45.25-216.59-107.99-8.88 15.55-14.43 33.04-14.43 51.91 0 36.09 18.88 67.73 46.64 86.06-17.21-.28-33.32-5-47.47-12.77v1.39c0 13.32 2.5 25.54 7.21 37.19 12.79 32.49 41.94 56.91 77.21 63.85-9.18 2.5-18.06 3.88-27.77 3.88-6.66 0-13.33-.83-19.73-2.22 13.62 41.09 52.21 71.06 98.04 72.17-36.11 27.76-81.09 44.13-130.23 44.13-8.61 0-16.65-.56-25.26-1.39 46.64 29.15 101.89 46.36 161.04 46.36 164.09 0 265.44-113.54 291.81-231.52 4.74-21.09 6.94-41.91 6.94-62.45v-13.33c20.27-14.69 38.33-33.02 52.2-53.56z" class="st0"/></symbol><symbol id="web" viewBox="0 0 512 512"><style>.st0{fill-rule:evenodd;clip-rule:evenodd;fill:#fff}</style><path d="M511.44 246.79c-.28-14.34-2.26-28.41-4.78-42.2-3.38-16.61-8.16-32.64-14.64-48.13-6.74-15.19-14.34-29.53-23.92-43.62-9.28-13.49-19.69-25.89-31.23-37.7-11.54-11.25-24.48-22.22-37.99-31.22-13.51-9.29-28.15-16.9-43.34-23.66-15.2-6.45-31.8-11.54-47.83-14.62C290.83 2.28 273.37.3 255.93.3c-17.16 0-34.61 1.99-51.5 5.34-16.03 3.09-32.63 8.18-47.83 14.62-15.19 6.77-30.11 14.37-43.62 23.66-13.22 9-26.45 19.97-37.7 31.22-11.82 11.82-22.23 24.21-31.23 37.7-9.58 14.08-17.46 28.42-23.36 43.62-7.03 15.48-11.82 31.52-15.19 48.13C2.68 217.52 1 231.04.71 243.98c-.57 3.93-.57 7.88-.57 12.39 0 17.15 1.7 34.34 5.35 51.2 3.38 16.62 8.16 32.64 15.19 48.12 5.9 15.19 13.78 29.55 23.36 43.62 8.99 13.23 19.41 25.9 31.23 37.71 11.25 11.82 24.48 22.22 37.7 31.23 13.51 9.01 28.42 16.89 43.62 23.36 15.2 6.74 31.8 11.82 47.83 15.19 16.89 3.67 34.34 4.78 51.5 4.78 17.44 0 34.9-1.11 51.78-4.78 16.04-3.38 32.63-8.45 47.83-15.19 15.19-6.48 29.83-14.35 43.34-23.36 13.5-9.01 26.45-19.41 37.99-31.23 11.54-11.82 21.95-24.48 31.23-37.71 9.58-14.07 17.17-28.42 23.92-43.62 6.48-15.47 11.26-31.5 14.64-48.12 3.37-16.87 5.35-34.33 5.35-51.2 0-3.68 0-6.48-.56-9.58zM255.93 37.72c55.16 0 106.09 20.55 144.36 54.31-.57.85-31.8 48.13-113.96 79.07-37.15-68.67-78.51-122.97-81.6-127.18 16.59-3.95 33.47-6.2 51.2-6.2zm-52.06 6.2s-.28.28-.85.28c.57 0 .57-.28.85-.28zm-41.36 14.62c3.1 3.94 43.62 58.8 81.32 126.06-104.68 27.85-195.84 26.44-201.48 26.44 14.35-67.81 59.37-123.81 120.16-152.5zM93.57 402.12c-34.89-38.58-55.99-89.78-55.99-145.76 0-2.82 0-4.8.28-7.04 3.65 0 111.71 2.53 224.26-31.25 6.19 12.12 12.11 24.78 17.74 37.43-3.1.28-5.91 1.14-8.73 2.54C152.95 295.75 93.57 401.83 93.57 401.83v.29zm162.36 72.59c-50.65 0-97.08-17.46-134.22-46.43 0 0-1.98-1.41-4.78-3.93 1.4 1.4 3.09 2.52 4.78 3.93.56-.85 42.78-91.73 171.64-136.48.56 0 .85-.28 1.41-.28 30.66 79.92 43.33 146.89 46.43 165.73-26.16 10.99-54.87 17.46-85.26 17.46zm122.12-37.43c-2.25-13.2-13.78-77.1-42.48-155.88 70.63-11.26 131.69 7.88 136.47 9.3-10.13 61.05-44.74 113.67-93.99 146.58zm-55.43-190.49c-1.98-3.93-3.66-7.6-4.79-11.26-3.66-7.89-7.03-15.2-10.4-23.08-1.4-2.81-2.81-5.63-4.51-8.72 86.38-35.17 121.29-85.54 122.13-86.39 27.01 32.93 44.74 74.3 48.68 119.32.29 5.61.85 11.23.85 17.44-3.11-.83-77.39-16.88-151.96-7.31z" class="st0"/></symbol><symbol id="cart-clear" viewBox="0 0 50 50"><style>.st0{fill:none}.st1,.st2{fill:none;stroke:#000;stroke-width:2;stroke-miterlimit:10}.st2{stroke-width:1.9868;stroke-linecap:round;stroke-linejoin:round}</style><path d="M0 0h50v50H0z" class="st0"/><circle cx="39" cy="46" r="3" class="st1"/><circle cx="26" cy="46" r="3" class="st1"/><circle cx="2" cy="4" r="2"/><path d="M41 43H25.71c-3.42 0-3.92-1.74-4.52-4.03l-8-32.28C12.47 4.27 11.46 3 8.66 3H2" class="st2"/><path d="M16 16h31l-7.19 19h-19.2" class="st2"/></symbol><symbol id="facebook" viewBox="0 0 512 512"><style>.st0{fill-rule:evenodd;clip-rule:evenodd;fill:#fff}</style><path d="M294.32 153.45v-41.1c0-19.72 13.06-24.44 22.51-24.44h57.48V.14h-79.15c-88.04 0-107.75 64.99-107.75 107.2v46.1H136.3v102.49h51.66V512h102.49V255.93h75.81l3.34-40.27 6.11-62.21h-81.39z" class="st0"/></symbol></svg>