<svg xmlns="http://www.w3.org/2000/svg" id="Layer_1" width="512" height="512" viewBox="0 0 512 512"><style>.st0{fill-rule:evenodd;clip-rule:evenodd;fill:#fff}</style><path d="M512 99.85c-18.61 8.06-38.87 13.61-60.25 16.38 21.92-13.04 38.58-33.03 46.37-57.46-20.27 11.93-43.04 20.54-66.91 25.26-18.91-20.25-46.37-32.75-76.92-32.75-57.75 0-104.97 46.36-104.97 103.26 0 8.33 1.41 16.11 3.07 23.6-87.46-4.17-164.94-45.25-216.59-107.99-8.88 15.55-14.43 33.04-14.43 51.91 0 36.09 18.88 67.73 46.64 86.06-17.21-.28-33.32-5-47.47-12.77v1.39c0 13.32 2.5 25.54 7.21 37.19 12.79 32.49 41.94 56.91 77.21 63.85-9.18 2.5-18.06 3.88-27.77 3.88-6.66 0-13.33-.83-19.73-2.22 13.62 41.09 52.21 71.06 98.04 72.17-36.11 27.76-81.09 44.13-130.23 44.13-8.61 0-16.65-.56-25.26-1.39 46.64 29.15 101.89 46.36 161.04 46.36 164.09 0 265.44-113.54 291.81-231.52 4.74-21.09 6.94-41.91 6.94-62.45v-13.33c20.27-14.69 38.33-33.02 52.2-53.56z" class="st0"/></svg>