<?xml version="1.0" encoding="utf-8"?>
<!-- Generator: Adobe Illustrator 23.0.0, SVG Export Plug-In . SVG Version: 6.00 Build 0)  -->
<svg version="1.1" id="Layer_1" xmlns="http://www.w3.org/2000/svg" xmlns:xlink="http://www.w3.org/1999/xlink" x="0px" y="0px"
	 viewBox="0 0 512 512" style="enable-background:new 0 0 512 512;" xml:space="preserve">
<style type="text/css">
	.st0{fill-rule:evenodd;clip-rule:evenodd;fill:#FFFFFF;}
</style>
<path class="st0" d="M512,99.85c-18.61,8.06-38.87,13.61-60.25,16.38c21.92-13.04,38.58-33.03,46.37-57.46
	c-20.27,11.93-43.04,20.54-66.91,25.26c-18.91-20.25-46.37-32.75-76.92-32.75c-57.75,0-104.97,46.36-104.97,103.26
	c0,8.33,1.41,16.11,3.07,23.6C164.93,173.97,87.45,132.89,35.8,70.15c-8.88,15.55-14.43,33.04-14.43,51.91
	c0,36.09,18.88,67.73,46.64,86.06c-17.21-0.28-33.32-5-47.47-12.77c0,0.56,0,0.84,0,1.39c0,13.32,2.5,25.54,7.21,37.19
	c12.79,32.49,41.94,56.91,77.21,63.85c-9.18,2.5-18.06,3.88-27.77,3.88c-6.66,0-13.33-0.83-19.73-2.22
	c13.62,41.09,52.21,71.06,98.04,72.17c-36.11,27.76-81.09,44.13-130.23,44.13c-8.61,0-16.65-0.56-25.26-1.39
	c46.64,29.15,101.89,46.36,161.04,46.36c164.09,0,265.44-113.54,291.81-231.52c4.74-21.09,6.94-41.91,6.94-62.45
	c0-4.44,0-9.16,0-13.33C480.07,138.72,498.13,120.39,512,99.85L512,99.85z"/>
</svg>
