<?xml version="1.0" encoding="utf-8"?>
<!-- Generator: Adobe Illustrator 23.0.0, SVG Export Plug-In . SVG Version: 6.00 Build 0)  -->
<svg version="1.1" id="Layer_1" xmlns="http://www.w3.org/2000/svg" xmlns:xlink="http://www.w3.org/1999/xlink" x="0px" y="0px"
	 viewBox="0 0 512 512" style="enable-background:new 0 0 512 512;" xml:space="preserve">
<style type="text/css">
	.st0{fill-rule:evenodd;clip-rule:evenodd;fill:#FFFFFF;}
</style>
<path class="st0" d="M511.44,246.79c-0.28-14.34-2.26-28.41-4.78-42.2c-3.38-16.61-8.16-32.64-14.64-48.13
	c-6.74-15.19-14.34-29.53-23.92-43.62c-9.28-13.49-19.69-25.89-31.23-37.7c-11.54-11.25-24.48-22.22-37.99-31.22
	c-13.51-9.29-28.15-16.9-43.34-23.66c-15.2-6.45-31.8-11.54-47.83-14.62c-16.88-3.36-34.34-5.34-51.78-5.34
	c-17.16,0-34.61,1.99-51.5,5.34c-16.03,3.09-32.63,8.18-47.83,14.62c-15.19,6.77-30.11,14.37-43.62,23.66
	c-13.22,9-26.45,19.97-37.7,31.22c-11.82,11.82-22.23,24.21-31.23,37.7c-9.58,14.08-17.46,28.42-23.36,43.62
	c-7.03,15.48-11.82,31.52-15.19,48.13c-2.82,12.93-4.5,26.45-4.79,39.39c-0.57,3.93-0.57,7.88-0.57,12.39
	c0,17.15,1.7,34.34,5.35,51.2c3.38,16.62,8.16,32.64,15.19,48.12c5.9,15.19,13.78,29.55,23.36,43.62
	c8.99,13.23,19.41,25.9,31.23,37.71c11.25,11.82,24.48,22.22,37.7,31.23c13.51,9.01,28.42,16.89,43.62,23.36
	c15.2,6.74,31.8,11.82,47.83,15.19c16.89,3.67,34.34,4.78,51.5,4.78c17.44,0,34.9-1.11,51.78-4.78
	c16.04-3.38,32.63-8.45,47.83-15.19c15.19-6.48,29.83-14.35,43.34-23.36c13.5-9.01,26.45-19.41,37.99-31.23
	c11.54-11.82,21.95-24.48,31.23-37.71c9.58-14.07,17.17-28.42,23.92-43.62c6.48-15.47,11.26-31.5,14.64-48.12
	c3.37-16.87,5.35-34.33,5.35-51.2C512,252.69,512,249.89,511.44,246.79L511.44,246.79z M255.93,37.72
	c55.16,0,106.09,20.55,144.36,54.31c-0.57,0.85-31.8,48.13-113.96,79.07c-37.15-68.67-78.51-122.97-81.6-127.18
	C221.32,39.97,238.2,37.72,255.93,37.72L255.93,37.72z M203.87,43.92L203.87,43.92c0,0-0.28,0.28-0.85,0.28
	C203.59,44.2,203.59,43.92,203.87,43.92L203.87,43.92z M162.51,58.54c3.1,3.94,43.62,58.8,81.32,126.06
	c-104.68,27.85-195.84,26.44-201.48,26.44C56.7,143.23,101.72,87.23,162.51,58.54L162.51,58.54z M93.57,402.12
	c-34.89-38.58-55.99-89.78-55.99-145.76c0-2.82,0-4.8,0.28-7.04c3.65,0,111.71,2.53,224.26-31.25
	c6.19,12.12,12.11,24.78,17.74,37.43c-3.1,0.28-5.91,1.14-8.73,2.54C152.95,295.75,93.57,401.83,93.57,401.83L93.57,402.12
	L93.57,402.12z M255.93,474.71c-50.65,0-97.08-17.46-134.22-46.43l0,0c0,0-1.98-1.41-4.78-3.93c1.4,1.4,3.09,2.52,4.78,3.93
	c0.56-0.85,42.78-91.73,171.64-136.48c0.56,0,0.85-0.28,1.41-0.28c30.66,79.92,43.33,146.89,46.43,165.73
	C315.03,468.24,286.32,474.71,255.93,474.71L255.93,474.71z M378.05,437.28c-2.25-13.2-13.78-77.1-42.48-155.88
	c70.63-11.26,131.69,7.88,136.47,9.3C461.91,351.75,427.3,404.37,378.05,437.28L378.05,437.28z M322.62,246.79
	c-1.98-3.93-3.66-7.6-4.79-11.26c-3.66-7.89-7.03-15.2-10.4-23.08c-1.4-2.81-2.81-5.63-4.51-8.72
	c86.38-35.17,121.29-85.54,122.13-86.39c27.01,32.93,44.74,74.3,48.68,119.32c0.29,5.61,0.85,11.23,0.85,17.44
	C471.47,253.27,397.19,237.22,322.62,246.79L322.62,246.79z"/>
</svg>
